<?xml version="1.0" encoding="UTF-8"?>
<svg id="Layer_1" data-name="Layer 1" xmlns="http://www.w3.org/2000/svg" xmlns:xlink="http://www.w3.org/1999/xlink" viewBox="0 0 186 56">
  <defs>
    <style>
      .cls-1, .cls-2, .cls-3, .cls-4, .cls-5, .cls-6, .cls-7, .cls-8, .cls-9, .cls-10, .cls-11, .cls-12, .cls-13, .cls-14, .cls-15, .cls-16, .cls-17, .cls-18 {
        fill: none;
      }

      .cls-2 {
        stroke: #bdccd4;
        stroke-miterlimit: 10;
        stroke-width: .28px;
      }

      .cls-3 {
        clip-path: url(#clippath-8);
      }

      .cls-4 {
        clip-path: url(#clippath-7);
      }

      .cls-5 {
        clip-path: url(#clippath-6);
      }

      .cls-6 {
        clip-path: url(#clippath-9);
      }

      .cls-7 {
        clip-path: url(#clippath-5);
      }

      .cls-8 {
        clip-path: url(#clippath-3);
      }

      .cls-9 {
        clip-path: url(#clippath-4);
      }

      .cls-10 {
        clip-path: url(#clippath-2);
      }

      .cls-11 {
        clip-path: url(#clippath-1);
      }

      .cls-19 {
        fill: #fff;
      }

      .cls-20 {
        fill: #bdccd4;
      }

      .cls-21 {
        fill: #e23f27;
      }

      .cls-22, .cls-23 {
        fill: #a2b73a;
      }

      .cls-24 {
        fill: #54301b;
      }

      .cls-12 {
        clip-path: url(#clippath-13);
      }

      .cls-13 {
        clip-path: url(#clippath-14);
      }

      .cls-14 {
        clip-path: url(#clippath-12);
      }

      .cls-15 {
        clip-path: url(#clippath-11);
      }

      .cls-16 {
        clip-path: url(#clippath-10);
      }

      .cls-17 {
        clip-path: url(#clippath-15);
      }

      .cls-23 {
        fill-rule: evenodd;
      }

      .cls-18 {
        clip-path: url(#clippath);
      }
    </style>
    <clipPath id="clippath">
      <path class="cls-1" d="m139.67,14.41h-.05s-.46-.07-1.1-1c-.09-.13-.2-.22-.32-.32-.23-.19-.52-.42-.82-.98-.11-.05-.55-.3-1.34-1.04-.22,0-1.47-.05-2.99-1.08-1.59-1.09-2.47-1.07-2.48-1.07l-.66.02.46-.13c-.42-.06-.85-.1-1.28-.12-.51-.03-1.02-.03-1.52,0-.02,0-.04.02-.05.04,0,.02,0,.04.01.06,4.19,4.43,6.08,6.15,11.49,6.67h0c.29.03.52.15.75.57.6,1.13,1.31,2.21,2.18,3.16.24-.14.5-.23.78-.28-1.08-1.04-1.96-2.3-2.68-3.65-.1-.28-.22-.56-.35-.83m-1.46-.1c-1.92-.8-3.89-1.99-5.8-3.13-.77-.47-1.5-.9-2.21-1.31-.03-.01-.04-.05-.03-.07,0-.03.04-.04.07-.04,4.36,1.18,7.33,3.73,8.02,4.36.11.11.12.24-.04.18"/>
    </clipPath>
    <clipPath id="clippath-1">
      <rect class="cls-1" x="142.39" y="4.4" width="41.03" height="37.52" transform="translate(-.05 .34) rotate(-.12)"/>
    </clipPath>
    <clipPath id="clippath-2">
      <path class="cls-1" d="m183.43,41.18c-.08-.27-.33-.84-.45-1.16-.19-.51-.33-.61-1.1-.53-1.92.2-3.96.18-5.88-.07-1.98-.26-3.94-.76-5.78-1.53-.14-.07-.2-.14-.26-.25-.34-.72-.66-1.71-.92-3.04,2.46-2.99.94-8.65-.45-13.7h0c-.05-.18-.15-.14-.23-.05-.91,1.34-1.49,2.74-1.81,4.14-.29-.12-.59-.23-.89-.34h-.2s-.05,0-.12,0c-.18,0-.55,0-.82-.09-.03,0-.96-.12-1.35-.35-.34-.2-1-.44-1.12-.49-.02.5-.03,1.01-.02,1.46.76.19,1.51.41,2.25.68.69.24,1.36.52,2.01.82-.25,2.97.63,5.78,2.01,7.81.15.91.48,2,.56,2.26.11.33-.11.42-.34.31-1.28-.71-2.47-1.58-3.48-2.62-1.41-1.44-2.46-3.22-2.99-5.18-.27-.98-.4-1.98-.45-3.03-.06-1.04-.05-2.09.03-3.13.1-1.19.3-2.38.64-3.52.12-.4.44-.46.74-.51.61-.11,1.23-.24,1.84-.38.56.13,1.14.22,1.74.25,4.58.24,9.05-2.6,10.78-4.7.06-.07.07-.14.03-.18-.04-.04-.11-.06-.2-.06h-.02v.06s-.05.03-.05.03c-.1.05-1.05.53-2.11.38-.15-.03-.31,0-.48.04-.31.06-.7.14-1.32-.02-.2.1-1.37.66-2.37.38-.11.18-.53.64-2.12,1-1.62.37-2.27.89-2.43,1.04l-.05.05-.08-.05c-.24.2-.49.41-.74.65-.37.33-.72.46-1.01.53-.58.13-1.16.24-1.74.34.17-.44.36-.87.58-1.29.93-1.8,2.3-3.37,3.94-4.62.27.06.55.1.83.11,3.77.19,8.05-3.62,11.83-6.98.02-.02.02-.04.02-.06,0-.02-.03-.04-.05-.04-3.05-.4-6.07.26-8.64,1.9-1.84,1.17-3.36,2.78-4.32,4.55-1.93,1.3-3.35,3.14-3.65,3.59-.09.13-.16.07-.17-.05-.09-1.34-.35-2.11-.47-2.49,0-.02,0-.04,0-.06-.2.12-.43.21-.67.26.2.6.64,2.21.36,3.91-.49.91-.9,2.08-1.11,2.73-.12.4-.37.35-.55-.03,0,0-.26-.5-.41-.76.2-1.77-.47-3.63-1.9-5.28-1.53-1.76-3.73-3.05-6.21-3.61-.02,0-.05,0-.06.02-.01.02-.02.04,0,.06.34.61.67,1.23.99,1.83,1.94,3.66,3.78,7.11,6.59,7.34.53.91.91,1.79,1.06,2.57-.02.14-.05.28-.07.42h.08s0,.09,0,.09c-.06.46-.1.83-.1.83v.07h-.08c-.05,0-1.34-.01-1.91-.12-.53-.1-2.18-.37-2.25-.39h0c-.05,0-.09-.05-.1-.1h-.01c.32.51.63,1.04.84,1.42.64.09,1.24.18,1.87.29.17.03,1.14.2,1.46.26-.02.34-.02.73-.03,1.15,0,.27.03,1.4.09,1.97.06.53.15,1.05.28,1.66.14.68.52,1.69.56,1.81.17.41-.13.55-.42.4-.91-.46-1.7-.94-2.39-1.45-.59-3.81-2.84-7.87-7.02-12.7-.02-.02-.04-.02-.06-.02-.02,0-.04.03-.04.05-.23,1.6-.24,3.19-.06,4.67-1.12-.14-2.23-.33-3.31-.61-.06-.02-.12-.04-.19-.05-.47-.73-.89-1.73-1.26-2.88,1.82-3.48-.32-9.16-2.7-14.33,0-.02-.03-.04-.05-.04-.02,0-.04.01-.05.04-2.61,5.65-1.27,9.54,2.17,14.63.21.63.43,1.22.67,1.75.13.29-.08.39-.34.29-.26-.11-.53-.23-.78-.35.02.13.04.26.04.4,0,.23-.03.44-.09.65.39.15.79.31,1.07.42.37.14.84.31,1.25.44,1.24.38,2.5.62,3.77.82.37,1.85,1.07,3.5,2.05,4.79,1.26,1.65,2.84,2.53,4.66,2.76.87.6,2.18,1.3,3.35,1.83h0c.34.15.71.47.82.65.05.09.72,1.08,1.1,1.52.19.24.14.27-.12.26-.38-.02-1.17.02-1.8.17-.08.02-.13.02-.18,0,.13.21.23.44.29.68.47-.12,1.43-.27,2.78-.05,1.41,1.4,3.08,2.51,4.85,3.36,2.03.97,4.19,1.62,6.4,1.99,2.21.37,4.45.47,6.69.3.27-.02.54-.04.81-.08.24-.03.33-.25.25-.54m-14.85-8.46c-.01.25-.19.22-.24.05-.27-.98-.92-4.07-.21-9.2,0-.03.03-.05.06-.05h0s.05.03.05.06c.02,1.62.11,2.81.2,3.95.12,1.52.23,2.97.13,5.2m-1.42-15.02h0c1.61-.43,3.22-.98,4.79-1.52.93-.32,1.8-.62,2.68-.9.03,0,.06,0,.07.03.01.03,0,.05-.02.07-3.18,1.84-6.14,2.38-7.47,2.54-.4.05-.41-.13-.05-.23m1.33-6.61c4.16-3.38,8.27-4.27,8.32-4.28.03,0,.06.01.07.04,0,.03,0,.06-.03.07-1.98,1.02-3.41,1.79-4.78,2.53-1.11.6-2.17,1.18-3.46,1.84-.2.1-.32-.03-.11-.2m-9.17,7.26h0s-.03,0-.04-.02c-.62-.75-1.17-1.45-1.7-2.13-1.25-1.59-2.33-2.96-3.68-4.18-.02-.02-.03-.06,0-.08.02-.02.05-.03.08-.01,4.3,2.9,5.32,6.07,5.4,6.33,0,0,0,.02,0,.04,0,.03-.03.06-.06.05m-13.56-1.24s-.01,0-.02,0c-.02,0-.04-.01-.05-.03-.02-.04-2.04-3.82-1.81-9.59,0-.03.02-.05.05-.05.03,0,.05.02.06.05.24,1.45.53,2.79.81,4.08.4,1.84.77,3.57.99,5.48,0,.03-.01.05-.04.06m11.01,12.26c-3.3-3.21-4.47-8.88-4.48-8.94,0-.03.01-.06.04-.07.03,0,.06,0,.07.04.94,2.35,1.89,3.99,2.82,5.58.59,1.01,1.19,2.06,1.79,3.28.1.21-.07.28-.24.12"/>
    </clipPath>
    <clipPath id="clippath-3">
      <path class="cls-1" d="m127.73,19.74c-.3.11-.5.35-.12.61,1.9,1.25,3.87,1.91,6,2.02,2.09.11,4.35-.32,7.05-1.34.04-.43.19-.82.42-1.16-1.68-.98-3.47-1.51-5.44-1.62-2.3-.12-4.89.37-7.91,1.48m11.49.55s.05.03.05.05-.02.05-.05.06c-.03,0-2.49.4-6.02.22-1.15-.06-2.29-.17-3.41-.34-.03,0-.05-.03-.05-.06,0-.03.03-.05.06-.05.42-.02.83-.03,1.23-.05,1.81-.08,3.38-.14,5.54-.03.83.04,1.7.11,2.64.2"/>
    </clipPath>
    <clipPath id="clippath-4">
      <path class="cls-1" d="m170.67,27.27c.2,1.13.23,1.89.25,2.61.68.67,1.24,1.41,1.77,2.2.52.78.96,1.61,1.35,2.46.15.32.31.43.65.34.33-.09,1.37-.37,1.37-.37.13-.05.18-.13.11-.3-.57-1.38-.99-2.04-1.87-3.27-1.02-1.41-2.23-2.66-3.63-3.68"/>
    </clipPath>
    <clipPath id="clippath-5">
      <path class="cls-1" d="m161.27,8.57c-1.32,0-2.38,1.07-2.38,2.39,0,1.32,1.07,2.38,2.39,2.38.18,0,.35-.02.52-.06.24-.05.46-.14.67-.26.72-.41,1.2-1.19,1.2-2.07,0-1.32-1.07-2.38-2.39-2.38"/>
    </clipPath>
    <clipPath id="clippath-6">
      <path class="cls-1" d="m161.33,35.58c-.41-.65-1.12-1.08-1.93-1.11-.03,0-.06,0-.09,0-1.32,0-2.38,1.07-2.38,2.39,0,1.32,1.07,2.38,2.39,2.38,1.23,0,2.24-.93,2.36-2.13,0-.09.01-.17.01-.26,0-.2-.03-.39-.07-.58-.06-.25-.16-.48-.29-.69"/>
    </clipPath>
    <clipPath id="clippath-7">
      <path class="cls-1" d="m143.07,18.78c-.14,0-.28.02-.41.04-.28.05-.54.15-.77.28-.3.17-.56.41-.76.69-.24.34-.39.74-.43,1.17,0,.07,0,.13,0,.2,0,1.32,1.07,2.38,2.39,2.38,1.09,0,2.01-.74,2.29-1.74.06-.21.09-.42.09-.65,0-.13-.01-.27-.04-.4-.19-1.13-1.17-1.99-2.35-1.98"/>
    </clipPath>
    <clipPath id="clippath-8">
      <path class="cls-1" d="m139.14,12.95c-.75-.33-.87-.62-1.16-1.33l-.03-.07c-.19-.47-.48-.59-.84-.75-.18-.08-.38-.16-.58-.3-.17-.11-.29-.23-.41-.34-.3-.28-.56-.52-1.35-.56-.89-.05-1.2-.21-1.68-.45-.13-.07-.27-.14-.45-.22-.48-.22-1.17-.16-1.61-.08.17.04.38.11.64.22.39.16.88.42,1.47.82,1.59,1.1,2.9,1.06,2.91,1.06h.03l.02.02c.89.84,1.33,1.05,1.33,1.05h.03s.01.04.01.04c.29.56.56.78.79.96.14.11.26.21.35.36.45.65.78.85.92.91h0c.05-.27.15-1.09-.41-1.33"/>
    </clipPath>
    <clipPath id="clippath-9">
      <path class="cls-1" d="m174.9,13.33c-.75.33-1.04.22-1.76-.05l-.07-.03c-.16-.06-.3-.09-.43-.09-.25,0-.45.1-.68.2-.18.09-.37.17-.61.23-.19.04-.36.06-.52.07-.41.04-.76.07-1.33.62-.64.63-.97.75-1.47.94-.14.05-.29.11-.46.18-.49.21-.91.77-1.15,1.14.13-.09.31-.19.54-.31.39-.19.92-.39,1.65-.56,1.53-.36,1.92-.79,2.01-.93.02-.02.02-.04.02-.04l.03-.07.08.02s.1.03.14.04c.75.17,1.58-.14,1.97-.31.12-.05.2-.1.21-.1l.03-.02h.04c.07.03.14.05.2.06.47.1.8.03,1.06-.02.19-.04.36-.07.53-.04.78.11,1.49-.14,1.82-.28.03-.01.06-.03.08-.04-.52-.37-1.41-.86-1.92-.64"/>
    </clipPath>
    <clipPath id="clippath-10">
      <path class="cls-1" d="m159.36,22.71c-.33.07-.62-.02-.93-.11-.22-.07-.44-.13-.7-.15-.42-.03-1,.21-1.31.36.18.03.54.1.91.17.47.09.97.18,1.22.23.31.06.86.09,1.28.11.23,0,.42.01.52.01.01-.13.04-.4.08-.73-.31-.03-.63.03-1.08.12"/>
    </clipPath>
    <clipPath id="clippath-11">
      <path class="cls-1" d="m163.45,23.42c-.19-.08-.32-.13-.44-.28-.15-.18-.66-.37-.91-.44-.05.25-.06.67-.07.82.08.03.25.09.44.17.24.1.51.22.7.33.37.22,1.32.34,1.33.34.21.06.48.08.67.08h0c-.24-.18-.66-.48-1.08-.72-.29-.17-.49-.25-.64-.32"/>
    </clipPath>
    <clipPath id="clippath-12">
      <path class="cls-1" d="m139.16,12.81c-.69-.3-.8-.55-1.07-1.23l-.03-.07c-.22-.53-.56-.67-.93-.82-.18-.07-.36-.15-.55-.28-.16-.1-.27-.21-.39-.32-.31-.28-.6-.54-1.44-.59-.86-.05-1.16-.2-1.62-.43-.13-.07-.28-.14-.45-.22-.81-.36-2.08-.01-2.14,0l-.18.05-.45.13.65-.02s.87-.02,2.46,1.06c1.51,1.02,2.75,1.07,2.97,1.07.78.73,1.22.97,1.33,1.03.3.56.58.79.81.97.13.1.24.19.32.32.64.92,1.08.98,1.1.98h.05s.02,0,.02,0l.02-.06c.01-.05.32-1.23-.48-1.57m.35,1.45h0c-.14-.05-.47-.25-.92-.89-.1-.15-.22-.24-.35-.35-.22-.18-.5-.4-.79-.95v-.02s-.04-.01-.04-.01c0,0-.45-.2-1.33-1.03l-.02-.02h-.03s-1.32.04-2.91-1.04c-.59-.4-1.08-.65-1.47-.81-.25-.11-.47-.17-.64-.21.44-.07,1.12-.13,1.6.08.17.08.32.15.45.21.47.24.79.39,1.68.45.78.05,1.04.28,1.35.55.12.11.25.22.41.33.2.13.39.21.58.29.36.15.65.27.84.74l.03.07c.29.7.4.99,1.16,1.31.56.24.46,1.04.41,1.31"/>
    </clipPath>
    <clipPath id="clippath-13">
      <path class="cls-1" d="m177.14,13.93c-.24-.18-1.45-1.04-2.18-.71-.69.31-.95.21-1.64-.05l-.07-.03c-.54-.2-.88-.05-1.24.12-.18.08-.36.16-.58.22-.18.04-.34.06-.5.07-.42.04-.82.07-1.43.65-.62.6-.94.72-1.42.9-.14.05-.29.11-.47.18-.72.3-1.27,1.24-1.43,1.52l-.03.07.04.03.08.06.05-.05c.16-.15.81-.68,2.43-1.05,1.59-.36,2.01-.82,2.12-1,1,.28,2.17-.28,2.37-.38.61.16,1,.08,1.32.02.18-.04.33-.06.48-.04,1.06.15,2-.32,2.11-.38l.04-.03v-.1s-.03-.03-.03-.03h0Zm-.27.09c-.33.14-1.04.39-1.83.28-.18-.03-.34,0-.54.04-.26.05-.59.11-1.06.02-.07-.01-.13-.03-.2-.05h-.04s-.03,0-.03,0c-.01,0-.09.05-.21.1-.38.17-1.22.47-1.97.31-.05-.01-.1-.02-.15-.04l-.08-.02-.03.07s0,.02-.02.04c-.09.14-.48.57-2.02.92-.73.17-1.27.37-1.66.55-.23.11-.41.21-.54.3.24-.37.67-.92,1.16-1.13.18-.07.33-.13.47-.18.5-.19.83-.31,1.48-.93.57-.54.92-.58,1.33-.61.16-.01.33-.03.52-.07.24-.05.42-.14.61-.23.24-.11.44-.2.69-.2.13,0,.27.03.43.09l.07.03c.71.27,1.01.38,1.76.05.51-.22,1.41.26,1.93.63-.02,0-.05.02-.08.04h0Z"/>
    </clipPath>
    <clipPath id="clippath-14">
      <path class="cls-1" d="m160.49,22.45c-.35-.04-.7,0-1.2.11-.29.06-.54-.01-.84-.1-.22-.06-.45-.13-.72-.15-.51-.04-1.21.27-1.49.4-.05.02-.07.07-.07.12h0c0,.05.05.09.1.1h0c.07.01,1.7.29,2.22.38.56.1,1.83.11,1.88.11h.07v-.07s.04-.37.1-.82v-.08s-.07,0-.07,0h0Zm-.69.81c-.42-.01-.96-.04-1.27-.1-.25-.05-.75-.13-1.2-.21-.37-.06-.72-.12-.9-.15.31-.14.88-.36,1.3-.33.25.02.47.08.69.14.31.09.59.17.92.1.44-.09.76-.14,1.07-.11-.04.3-.07.56-.08.68-.1,0-.29,0-.52-.01h0Z"/>
    </clipPath>
    <clipPath id="clippath-15">
      <path class="cls-1" d="m164.2,23.64c-.3-.17-.51-.25-.66-.31-.18-.07-.28-.11-.37-.22-.22-.25-.91-.45-1.08-.48h-.07s-.02.05-.02.05c-.09.3-.09.92-.09.95v.05l.05.02s0,0,.02,0c.13.04.8.28,1.14.48.4.23,1.35.34,1.37.35.28.08.65.09.83.09.07,0,.11,0,.12,0h.2s.02,0,.02,0l-.18-.13s-.65-.48-1.29-.83h0Zm1,.82c-.19,0-.46-.02-.67-.08,0,0-.95-.12-1.33-.33-.19-.11-.46-.22-.7-.32-.19-.07-.36-.13-.44-.16,0-.14.01-.54.07-.78.25.06.76.24.91.41.12.14.25.19.43.26.15.06.35.14.64.3.42.23.84.52,1.08.69h0,0Z"/>
    </clipPath>
  </defs>
  <path class="cls-22" d="m84.42,48.08h.77v3.5h-.77v-3.5h0Zm3.46.71h-1.06v-.71h2.9v.71h-1.06v2.79h-.77v-2.79h0Zm4.18-.74h.71l1.5,3.53h-.81l-.32-.79h-1.48l-.32.79h-.78l1.5-3.53h0Zm.81,2.06l-.47-1.14-.47,1.14h.93Zm2.94-2.04h.77v2.8h1.75v.7h-2.52v-3.5h0Zm4.13,0h.77v3.5h-.77v-3.5Zm3.85-.03h.71l1.5,3.53h-.81l-.32-.79h-1.48l-.32.79h-.79l1.5-3.53h0Zm.81,2.06l-.47-1.14-.47,1.14h.93Zm2.94-2.04h.71l1.64,2.16v-2.16h.76v3.5h-.66l-1.7-2.23v2.23h-.76v-3.5h0Zm7.41,0h.77v1.53l1.42-1.53h.93l-1.43,1.48,1.49,2.02h-.93l-1.09-1.49-.4.42v1.07h-.77v-3.5h0Zm4.69,0h.77v3.5h-.77v-3.5Zm3.46.71h-1.06v-.71h2.9v.71h-1.07v2.79h-.77v-2.79Zm3.12,1.05h0c0-1.01.75-1.82,1.83-1.82.66,0,1.05.22,1.38.54l-.49.56c-.27-.25-.54-.4-.9-.4-.59,0-1.02.49-1.02,1.09h0c0,.61.41,1.11,1.02,1.11.4,0,.64-.16.92-.41l.49.5c-.36.39-.76.62-1.43.62-1.03,0-1.8-.79-1.8-1.8h0Zm4.85-1.76h.77v1.39h1.42v-1.39h.77v3.5h-.77v-1.4h-1.42v1.4h-.77v-3.5Zm4.8,0h2.64v.68h-1.88v.71h1.65v.68h-1.65v.74h1.9v.68h-2.67v-3.5h0Zm4.36,0h.71l1.64,2.16v-2.16h.76v3.5h-.66l-1.69-2.23v2.23h-.76v-3.5Z"/>
  <path class="cls-24" d="m31.01,23.33c0-.75.61-1.36,1.36-1.36s1.36.61,1.36,1.36-.61,1.36-1.36,1.36-1.36-.61-1.36-1.36Zm8.32,14.65c-1.02.94-2.17,1.42-3.42,1.42-.91,0-2.62-.29-3.72-2.09-1.04,1.02-2.65,2.09-4.98,2.09-2.49,0-5.44-1.37-5.44-7.91v-6.95c0-5.25,2.45-5.82,3.51-5.82,1.67,0,3.36,1.59,3.36,5.14,0,5.5-2.83,10.16-3.82,11.63.74,1.54,1.86,1.54,2.41,1.54,2.32,0,3.64-1.62,4.11-2.32-.09-.6-.15-1.27-.15-2.03v-5.77c0-.14.11-.25.25-.25h1.87c.14,0,.25.11.25.25v5.77c0,2.88.8,4.35,2.36,4.35,1.06,0,1.85-.73,2.33-1.35.05-.07.14-.11.23-.09.09.01.16.07.2.15.29.73.54,1.39.73,1.98.03.09,0,.19-.07.26h0Zm-15.19-5.31c1.05-2.08,2.12-5.7,2.12-8.8,0-1.85-.63-2.78-.99-2.78-.55,0-1.14,1.08-1.14,3.45v7.69c0,.15,0,.3,0,.44h0Zm-12.75,7.08c.11,0,.21,0,.32,0,2.62-.08,4.83-1.15,6.38-3.08,1.54-1.92,2.31-4.54,2.21-7.57-.19-6.03-3.24-9.93-7.75-9.93-.09,0-.18,0-.27,0-1.33.04-2.47.49-3.3,1.28-.86.82-1.31,1.97-1.27,3.22.04,1.41.78,2.66,1.97,3.34.45.26,1.2.57,2.25.57.92,0,1.91-.24,2.94-.72.12-.06.18-.2.13-.32l-.71-1.73c-.03-.06-.08-.11-.14-.14-.06-.02-.13-.02-.2,0-1.26.6-2.36.71-3.09.29-.48-.28-.76-.77-.78-1.37-.02-.58.17-1.08.54-1.44.4-.39,1.01-.61,1.74-.63.06,0,.12,0,.18,0,3.14,0,5.26,3,5.41,7.64.08,2.4-.48,4.44-1.61,5.9-1.12,1.45-2.74,2.25-4.69,2.31-.08,0-.17,0-.24,0-4.29,0-6.37-3.74-6.48-7.2-.1-3.14,1.14-5.22,1.89-6.17.05-.07.07-.17.04-.25l-.78-1.93c-.03-.08-.1-.13-.18-.15-.08-.02-.17,0-.23.07-.54.53-3.25,3.45-3.09,8.51.18,5.59,3.81,9.5,8.84,9.5h0Zm49.86-2.62c-1.02.98-2.72,2.28-5.63,2.28-3.63,0-6.16-2.64-6.16-6.49,0-.43.04-.9.1-1.33-.54-.38-1.29-1.04-1.75-1.51-.29,3.14-1.96,6.18-4.25,9.09-.05.06-.12.1-.2.1h-1.95c-.11,0-.21-.07-.24-.18-1.94-6.32-4.42-10.82-5.13-12.05-.04-.08-.04-.17,0-.25.04-.08.13-.13.22-.13h2.15c.09,0,.18.05.22.13.89,1.62,2.59,5.17,4.14,9.68,2.54-3.54,3.29-6.75,2.29-9.44-.02-.06-.02-.14,0-.2.03-.06.08-.11.15-.13l1.86-.57c.11-.03.22.02.29.11.76,1.08,1.91,2.27,2.89,3.02,1.07-2.24,2.96-3.59,5.29-3.59,2.62,0,4.45,1.61,4.45,3.92s-2.03,4.04-4.95,4.04c-1.05,0-2.13-.27-3.2-.73.01,2.07,1.19,4.13,3.79,4.13,2.31,0,3.49-1.06,4.5-2.14.06-.06.14-.09.23-.07.08.02.15.07.18.15l.77,1.89c.04.1.02.2-.06.27h0Zm-8.97-6.57c.94.48,1.87.71,2.75.71.96,0,2.58-.35,2.58-1.67,0-1.44-1.59-1.55-2.08-1.55-1.44,0-2.62.92-3.26,2.52h0Zm28.22-1.15h-1.87c-.14,0-.25.11-.25.25,0,3.87-2.29,7.78-6.68,7.78-3.64,0-6-2.69-6-6.86,0-3.79,2.13-7.88,6.82-7.88,1.76,0,3.82.79,3.82,3.01,0,1.08-.62,2.05-1.65,2.59-.11.06-.16.19-.11.31l.69,1.75c.03.06.08.11.14.14s.14.02.2,0c1.94-.92,3.11-2.71,3.11-4.79,0-3.17-2.55-5.38-6.19-5.38-6.31,0-9.19,5.31-9.19,10.24,0,5.52,3.36,9.22,8.36,9.22,3.19,0,5.39-1.69,6.68-3.61v2.37c0,4.95-2.14,4.97-3.05,4.97-.72,0-1.36-.25-1.91-.74-.06-.05-.14-.07-.22-.06-.08.02-.14.07-.18.15l-.73,1.79c-.04.11,0,.23.09.3.87.61,1.86.92,2.94.92,2.47,0,5.42-1.27,5.42-7.31v-8.82s0,0,0,0c0-.03,0-.07,0-.1,0-.14-.11-.25-.25-.25h0Zm33.85,14.01c-.04.07-.1.11-.17.13-.91.19-1.8.28-2.63.28-2.08,0-3.86-.56-5.29-1.68-2.25-1.74-3.43-4.65-3.43-8.41v-3.77c0-.32-.06-.56-.18-.67-.19-.18-.41-.2-.87-.18-1.07.06-2.02-.08-2.83-.31.13,1.02.19,2.2.19,3.48,0,4.81-1.37,7.25-4.07,7.25-.89,0-2.29-.44-3.2-2.19-1.02,1.26-2.33,2.19-4.19,2.19-3.42,0-5.62-2.6-5.62-6.63s2.21-6.63,5.62-6.63c1.32,0,2.49.45,3.43,1.23v-.67c0-.14.11-.25.25-.25h1.87c.14,0,.25.11.25.25v6.81c0,1.32.21,3.52,1.59,3.52,1.48,0,1.7-3.06,1.7-4.88,0-3.06-.35-4.53-.78-6.01-.04-.13.04-.27.17-.31l1.85-.57c.12-.04.25.02.3.14.33.81,1.27,1.23,2.79,1.23.17,0,.35,0,.54-.02,1.08-.06,2,.22,2.63.82.42.4.92,1.13.92,2.39v3.77c0,3,.87,5.26,2.52,6.54,1.01.78,2.31,1.18,3.85,1.18.57,0,1.18-.06,1.81-.17.12-.02.23.04.27.15l.72,1.77c.03.07.02.15-.01.21h0Zm-23.34-10.51c0-2.05-1.04-4.26-3.33-4.26-3.02,0-3.25,3.26-3.25,4.26s.23,4.26,3.25,4.26c2.28,0,3.33-2.21,3.33-4.26Zm57.25,5c-.72.69-1.78,1.63-3.49,1.63-2.36,0-3.77-1.66-3.77-4.43v-3.69c0-2.17-.79-2.59-2.16-2.59-1.81,0-3.47,2.22-3.47,4.67v5.53c0,.14-.11.25-.25.25h-1.87c-.14,0-.25-.11-.25-.25v-2.55c-1.08,1.34-2.86,3.07-5.89,3.07-1.84,0-3.3-.62-4.37-1.66-.75.88-1.88,1.55-3.14,1.55s-2.33-.78-3-2.08c-1.01,1.26-2.38,2.19-4.23,2.19-3.42,0-5.62-2.6-5.62-6.63s2.21-6.63,5.62-6.63c1.44,0,2.52.53,3.46,1.31v-7.08c0-.14.11-.25.25-.25h1.87c.14,0,.25.11.25.25v13.43c0,1.98.53,3.12,1.5,3.12.76,0,1.27-.59,1.71-1.08-.34-.86-.6-1.83-.6-3.07,0-3.84,2.52-6.63,6-6.63,2.8,0,4.31,1.97,4.31,3.83,0,1.42-.68,2.66-1.86,3.4-.82.51-1.79.77-2.91.77-.98,0-2.03-.2-3.12-.6.17,1.46.92,3.5,3.8,3.5,3.63,0,5.47-3.11,5.99-4.56v-5.76c0-.14.11-.25.25-.25h1.87c.14,0,.25.11.25.25v1.06c.98-.91,2.19-1.46,3.47-1.46,1.69,0,4.53.64,4.53,4.96v3.69c0,2.07.95,2.07,1.4,2.07.92,0,1.54-.63,2.36-1.48.06-.06.14-.1.23-.09.09.01.16.07.19.15l.77,1.88c.04.09.02.2-.05.27h0Zm-24.84-6.7c1.04.46,2.05.7,2.91.7.66,0,1.22-.14,1.65-.41.5-.31.75-.78.75-1.39,0-.7-.61-1.46-1.94-1.46-1.64,0-2.86.93-3.37,2.56h0Zm-7.73,1.7c0-2.12-1.03-4.26-3.33-4.26-3.02,0-3.25,3.26-3.25,4.26s.24,4.26,3.25,4.26c2.3,0,3.33-2.14,3.33-4.26Z"/>
  <path class="cls-22" d="m145.95,41.35c0-1.61,2.39-1.61,2.39,0s-2.39,1.61-2.39,0Zm2.11,0c0-1.28-1.83-1.28-1.83,0s1.83,1.27,1.83,0Zm-.38.53v.04h-.24l-.26-.39h-.2v.39h-.23v-1.14h.49c.24,0,.41.14.41.39,0,.16-.08.29-.24.34l.27.38h0Zm-.7-.54h.24c.11,0,.2-.07.2-.18,0-.1-.08-.18-.2-.18h-.24v.36Z"/>
  <g>
    <g>
      <path class="cls-23" d="m139.67,14.41h-.05s-.46-.07-1.1-1c-.09-.13-.2-.22-.32-.32-.23-.19-.52-.42-.82-.98-.11-.05-.55-.3-1.34-1.04-.22,0-1.47-.05-2.99-1.08-1.59-1.09-2.47-1.07-2.48-1.07l-.66.02.46-.13c-.42-.06-.85-.1-1.28-.12-.51-.03-1.02-.03-1.52,0-.02,0-.04.02-.05.04,0,.02,0,.04.01.06,4.19,4.43,6.08,6.15,11.49,6.67h0c.29.03.52.15.75.57.6,1.13,1.31,2.21,2.18,3.16.24-.14.5-.23.78-.28-1.08-1.04-1.96-2.3-2.68-3.65-.1-.28-.22-.56-.35-.83m-1.46-.1c-1.92-.8-3.89-1.99-5.8-3.13-.77-.47-1.5-.9-2.21-1.31-.03-.01-.04-.05-.03-.07,0-.03.04-.04.07-.04,4.36,1.18,7.33,3.73,8.02,4.36.11.11.12.24-.04.18"/>
      <g class="cls-18">
        <rect class="cls-22" x="126.02" y="8.08" width="18.17" height="11.36" transform="translate(-.03 .28) rotate(-.12)"/>
      </g>
    </g>
    <g class="cls-11">
      <g>
        <path class="cls-23" d="m183.43,41.18c-.08-.27-.33-.84-.45-1.16-.19-.51-.33-.61-1.1-.53-1.92.2-3.96.18-5.88-.07-1.98-.26-3.94-.76-5.78-1.53-.14-.07-.2-.14-.26-.25-.34-.72-.66-1.71-.92-3.04,2.46-2.99.94-8.65-.45-13.7h0c-.05-.18-.15-.14-.23-.05-.91,1.34-1.49,2.74-1.81,4.14-.29-.12-.59-.23-.89-.34h-.2s-.05,0-.12,0c-.18,0-.55,0-.82-.09-.03,0-.96-.12-1.35-.35-.34-.2-1-.44-1.12-.49-.02.5-.03,1.01-.02,1.46.76.19,1.51.41,2.25.68.69.24,1.36.52,2.01.82-.25,2.97.63,5.78,2.01,7.81.15.91.48,2,.56,2.26.11.33-.11.42-.34.31-1.28-.71-2.47-1.58-3.48-2.62-1.41-1.44-2.46-3.22-2.99-5.18-.27-.98-.4-1.98-.45-3.03-.06-1.04-.05-2.09.03-3.13.1-1.19.3-2.38.64-3.52.12-.4.44-.46.74-.51.61-.11,1.23-.24,1.84-.38.56.13,1.14.22,1.74.25,4.58.24,9.05-2.6,10.78-4.7.06-.07.07-.14.03-.18-.04-.04-.11-.06-.2-.06h-.02v.06s-.05.03-.05.03c-.1.05-1.05.53-2.11.38-.15-.03-.31,0-.48.04-.31.06-.7.14-1.32-.02-.2.1-1.37.66-2.37.38-.11.18-.53.64-2.12,1-1.62.37-2.27.89-2.43,1.04l-.05.05-.08-.05c-.24.2-.49.41-.74.65-.37.33-.72.46-1.01.53-.58.13-1.16.24-1.74.34.17-.44.36-.87.58-1.29.93-1.8,2.3-3.37,3.94-4.62.27.06.55.1.83.11,3.77.19,8.05-3.62,11.83-6.98.02-.02.02-.04.02-.06,0-.02-.03-.04-.05-.04-3.05-.4-6.07.26-8.64,1.9-1.84,1.17-3.36,2.78-4.32,4.55-1.93,1.3-3.35,3.14-3.65,3.59-.09.13-.16.07-.17-.05-.09-1.34-.35-2.11-.47-2.49,0-.02,0-.04,0-.06-.2.12-.43.21-.67.26.2.6.64,2.21.36,3.91-.49.91-.9,2.08-1.11,2.73-.12.4-.37.35-.55-.03,0,0-.26-.5-.41-.76.2-1.77-.47-3.63-1.9-5.28-1.53-1.76-3.73-3.05-6.21-3.61-.02,0-.05,0-.06.02-.01.02-.02.04,0,.06.34.61.67,1.23.99,1.83,1.94,3.66,3.78,7.11,6.59,7.34.53.91.91,1.79,1.06,2.57-.02.14-.05.28-.07.42h.08s0,.09,0,.09c-.06.46-.1.83-.1.83v.07h-.08c-.05,0-1.34-.01-1.91-.12-.53-.1-2.18-.37-2.25-.39h0c-.05,0-.09-.05-.1-.1h-.01c.32.51.63,1.04.84,1.42.64.09,1.24.18,1.87.29.17.03,1.14.2,1.46.26-.02.34-.02.73-.03,1.15,0,.27.03,1.4.09,1.97.06.53.15,1.05.28,1.66.14.68.52,1.69.56,1.81.17.41-.13.55-.42.4-.91-.46-1.7-.94-2.39-1.45-.59-3.81-2.84-7.87-7.02-12.7-.02-.02-.04-.02-.06-.02-.02,0-.04.03-.04.05-.23,1.6-.24,3.19-.06,4.67-1.12-.14-2.23-.33-3.31-.61-.06-.02-.12-.04-.19-.05-.47-.73-.89-1.73-1.26-2.88,1.82-3.48-.32-9.16-2.7-14.33,0-.02-.03-.04-.05-.04-.02,0-.04.01-.05.04-2.61,5.65-1.27,9.54,2.17,14.63.21.63.43,1.22.67,1.75.13.29-.08.39-.34.29-.26-.11-.53-.23-.78-.35.02.13.04.26.04.4,0,.23-.03.44-.09.65.39.15.79.31,1.07.42.37.14.84.31,1.25.44,1.24.38,2.5.62,3.77.82.37,1.85,1.07,3.5,2.05,4.79,1.26,1.65,2.84,2.53,4.66,2.76.87.6,2.18,1.3,3.35,1.83h0c.34.15.71.47.82.65.05.09.72,1.08,1.1,1.52.19.24.14.27-.12.26-.38-.02-1.17.02-1.8.17-.08.02-.13.02-.18,0,.13.21.23.44.29.68.47-.12,1.43-.27,2.78-.05,1.41,1.4,3.08,2.51,4.85,3.36,2.03.97,4.19,1.62,6.4,1.99,2.21.37,4.45.47,6.69.3.27-.02.54-.04.81-.08.24-.03.33-.25.25-.54m-14.85-8.46c-.01.25-.19.22-.24.05-.27-.98-.92-4.07-.21-9.2,0-.03.03-.05.06-.05h0s.05.03.05.06c.02,1.62.11,2.81.2,3.95.12,1.52.23,2.97.13,5.2m-1.42-15.02h0c1.61-.43,3.22-.98,4.79-1.52.93-.32,1.8-.62,2.68-.9.03,0,.06,0,.07.03.01.03,0,.05-.02.07-3.18,1.84-6.14,2.38-7.47,2.54-.4.05-.41-.13-.05-.23m1.33-6.61c4.16-3.38,8.27-4.27,8.32-4.28.03,0,.06.01.07.04,0,.03,0,.06-.03.07-1.98,1.02-3.41,1.79-4.78,2.53-1.11.6-2.17,1.18-3.46,1.84-.2.1-.32-.03-.11-.2m-9.17,7.26h0s-.03,0-.04-.02c-.62-.75-1.17-1.45-1.7-2.13-1.25-1.59-2.33-2.96-3.68-4.18-.02-.02-.03-.06,0-.08.02-.02.05-.03.08-.01,4.3,2.9,5.32,6.07,5.4,6.33,0,0,0,.02,0,.04,0,.03-.03.06-.06.05m-13.56-1.24s-.01,0-.02,0c-.02,0-.04-.01-.05-.03-.02-.04-2.04-3.82-1.81-9.59,0-.03.02-.05.05-.05.03,0,.05.02.06.05.24,1.45.53,2.79.81,4.08.4,1.84.77,3.57.99,5.48,0,.03-.01.05-.04.06m11.01,12.26c-3.3-3.21-4.47-8.88-4.48-8.94,0-.03.01-.06.04-.07.03,0,.06,0,.07.04.94,2.35,1.89,3.99,2.82,5.58.59,1.01,1.19,2.06,1.79,3.28.1.21-.07.28-.24.12"/>
        <g class="cls-10">
          <rect class="cls-22" x="136.92" y="-.98" width="52.68" height="43.98" transform="translate(-.04 .34) rotate(-.12)"/>
        </g>
      </g>
    </g>
    <g>
      <path class="cls-23" d="m127.73,19.74c-.3.11-.5.35-.12.61,1.9,1.25,3.87,1.91,6,2.02,2.09.11,4.35-.32,7.05-1.34.04-.43.19-.82.42-1.16-1.68-.98-3.47-1.51-5.44-1.62-2.3-.12-4.89.37-7.91,1.48m11.49.55s.05.03.05.05-.02.05-.05.06c-.03,0-2.49.4-6.02.22-1.15-.06-2.29-.17-3.41-.34-.03,0-.05-.03-.05-.06,0-.03.03-.05.06-.05.42-.02.83-.03,1.23-.05,1.81-.08,3.38-.14,5.54-.03.83.04,1.7.11,2.64.2"/>
      <g class="cls-8">
        <rect class="cls-22" x="126.86" y="16.53" width="14.5" height="7.43" transform="translate(-.04 .28) rotate(-.12)"/>
      </g>
    </g>
    <g>
      <path class="cls-23" d="m170.67,27.27c.2,1.13.23,1.89.25,2.61.68.67,1.24,1.41,1.77,2.2.52.78.96,1.61,1.35,2.46.15.32.31.43.65.34.33-.09,1.37-.37,1.37-.37.13-.05.18-.13.11-.3-.57-1.38-.99-2.04-1.87-3.27-1.02-1.41-2.23-2.66-3.63-3.68"/>
      <g class="cls-9">
        <rect class="cls-22" x="169.34" y="27.15" width="8.07" height="8.27" transform="translate(-.07 .36) rotate(-.12)"/>
      </g>
    </g>
    <g class="cls-7">
      <rect class="cls-21" x="158.17" y="7.86" width="6.15" height="6.21" transform="translate(-.02 .34) rotate(-.12)"/>
    </g>
    <g class="cls-5">
      <rect class="cls-21" x="156.24" y="33.85" width="6.05" height="5.91" transform="translate(-.08 .33) rotate(-.12)"/>
    </g>
    <g class="cls-4">
      <rect class="cls-21" x="140.12" y="18.11" width="5.87" height="6.14" transform="translate(-.04 .3) rotate(-.12)"/>
    </g>
    <g class="cls-3">
      <rect class="cls-19" x="130.25" y="8.4" width="10.15" height="6.03" transform="translate(-.02 .28) rotate(-.12)"/>
    </g>
    <g class="cls-6">
      <rect class="cls-19" x="166.28" y="11.56" width="10.77" height="6.83" transform="translate(-.03 .36) rotate(-.12)"/>
    </g>
    <g class="cls-16">
      <rect class="cls-19" x="156.3" y="21.79" width="4.32" height="1.86" transform="translate(-.05 .33) rotate(-.12)"/>
    </g>
    <g class="cls-15">
      <rect class="cls-19" x="161.74" y="22.59" width="3.76" height="2.08" transform="translate(-.05 .34) rotate(-.12)"/>
    </g>
    <g class="cls-14">
      <rect class="cls-20" x="129.15" y="8.05" width="11.49" height="6.58" transform="translate(-.02 .28) rotate(-.12)"/>
    </g>
    <path class="cls-2" d="m139.16,12.81c-.69-.3-.8-.55-1.07-1.23l-.03-.07c-.22-.53-.56-.67-.93-.82-.18-.07-.36-.15-.55-.28-.16-.1-.27-.21-.39-.32-.31-.28-.6-.54-1.44-.59-.86-.05-1.16-.2-1.62-.43-.13-.07-.28-.14-.45-.22-.81-.36-2.08-.01-2.14,0l-.18.05-.45.13.65-.02s.87-.02,2.46,1.06c1.51,1.02,2.75,1.07,2.97,1.07.78.73,1.22.97,1.33,1.03.3.56.58.79.81.97.13.1.24.19.32.32.64.92,1.08.98,1.1.98h.05s.02,0,.02,0l.02-.06c.01-.05.32-1.23-.48-1.57h0Zm.35,1.45h0c-.14-.05-.47-.25-.92-.89-.1-.15-.22-.24-.35-.35-.22-.18-.5-.4-.79-.95v-.02s-.04-.01-.04-.01c0,0-.45-.2-1.33-1.03l-.02-.02h-.03s-1.32.04-2.91-1.04c-.59-.4-1.08-.65-1.47-.81-.25-.11-.47-.17-.64-.21.44-.07,1.12-.13,1.6.08.17.08.32.15.45.21.47.24.79.39,1.68.45.78.05,1.04.28,1.35.55.12.11.25.22.41.33.2.13.39.21.58.29.36.15.65.27.84.74l.03.07c.29.7.4.99,1.16,1.31.56.24.46,1.04.41,1.31h0Z"/>
    <g class="cls-12">
      <rect class="cls-20" x="166" y="11.27" width="11.45" height="7.58" transform="translate(-.03 .36) rotate(-.12)"/>
    </g>
    <path class="cls-2" d="m177.14,13.93c-.24-.18-1.45-1.04-2.18-.71-.69.31-.95.21-1.64-.05l-.07-.03c-.54-.2-.88-.05-1.24.12-.18.08-.36.16-.58.22-.18.04-.34.06-.5.07-.42.04-.82.07-1.43.65-.62.6-.94.72-1.42.9-.14.05-.29.11-.47.18-.72.3-1.27,1.24-1.43,1.52l-.03.07.04.03.08.06.05-.05c.16-.15.81-.68,2.43-1.05,1.59-.36,2.01-.82,2.12-1,1,.28,2.17-.28,2.37-.38.61.16,1,.08,1.32.02.18-.04.33-.06.48-.04,1.06.15,2-.32,2.11-.38l.04-.03v-.1s-.03-.03-.03-.03h0Zm-.27.09c-.33.14-1.04.39-1.83.28-.18-.03-.34,0-.54.04-.26.05-.59.11-1.06.02-.07-.01-.13-.03-.2-.05h-.04s-.03,0-.03,0c-.01,0-.09.05-.21.1-.38.17-1.22.47-1.97.31-.05-.01-.1-.02-.15-.04l-.08-.02-.03.07s0,.02-.02.04c-.09.14-.48.57-2.02.92-.73.17-1.27.37-1.66.55-.23.11-.41.21-.54.3.24-.37.67-.92,1.16-1.13.18-.07.33-.13.47-.18.5-.19.83-.31,1.48-.93.57-.54.92-.58,1.33-.61.16-.01.33-.03.52-.07.24-.05.42-.14.61-.23.24-.11.44-.2.69-.2.13,0,.27.03.43.09l.07.03c.71.27,1.01.38,1.76.05.51-.22,1.41.26,1.93.63-.02,0-.05.02-.08.04h0Z"/>
    <g class="cls-13">
      <rect class="cls-20" x="156.02" y="21.6" width="4.72" height="2.19" transform="translate(-.05 .33) rotate(-.12)"/>
    </g>
    <path class="cls-2" d="m160.49,22.45c-.35-.04-.7,0-1.2.11-.29.06-.54-.01-.84-.1-.22-.06-.45-.13-.72-.15-.51-.04-1.21.27-1.49.4-.05.02-.07.07-.07.12h0c0,.05.05.09.1.1h0c.07.01,1.7.29,2.22.38.56.1,1.83.11,1.88.11h.07v-.07s.04-.37.1-.82v-.08s-.07,0-.07,0h0Zm-.69.81c-.42-.01-.96-.04-1.27-.1-.25-.05-.75-.13-1.2-.21-.37-.06-.72-.12-.9-.15.31-.14.88-.36,1.3-.33.25.02.47.08.69.14.31.09.59.17.92.1.44-.09.76-.14,1.07-.11-.04.3-.07.56-.08.68-.1,0-.29,0-.52-.01h0Z"/>
    <g class="cls-17">
      <rect class="cls-20" x="161.58" y="22.49" width="4.44" height="2.43" transform="translate(-.05 .34) rotate(-.12)"/>
    </g>
    <path class="cls-2" d="m164.2,23.64c-.3-.17-.51-.25-.66-.31-.18-.07-.28-.11-.37-.22-.22-.25-.91-.45-1.08-.48h-.07s-.02.05-.02.05c-.09.3-.09.92-.09.95v.05l.05.02s0,0,.02,0c.13.04.8.28,1.14.48.4.23,1.35.34,1.37.35.28.08.65.09.83.09.07,0,.11,0,.12,0h.2s.02,0,.02,0l-.18-.13s-.65-.48-1.29-.83h0Zm1,.82c-.19,0-.46-.02-.67-.08,0,0-.95-.12-1.33-.33-.19-.11-.46-.22-.7-.32-.19-.07-.36-.13-.44-.16,0-.14.01-.54.07-.78.25.06.76.24.91.41.12.14.25.19.43.26.15.06.35.14.64.3.42.23.84.52,1.08.69h0,0Z"/>
  </g>
</svg>